<svg xmlns="http://www.w3.org/2000/svg" viewBox="0 0 299.29 205.43"><defs><style>.cls-1{fill:#fff;}</style></defs><title>Recurso 3svg</title><g id="Capa_2" data-name="Capa 2"><g id="Capa_1-2" data-name="Capa 1"><path class="cls-1" d="M66.77,102.4a83.65,83.65,0,0,1,2.55-20.52l-67,9.28A3.23,3.23,0,0,0,0,94.49V199.16c0,3.86,2.89,6.8,6.07,6.19l132.79-20.28A83.45,83.45,0,0,1,66.77,102.4Z"/><path class="cls-1" d="M297,91.16,231.17,82A83.49,83.49,0,0,1,161,185.15l132.27,20.2c3.18.61,6.06-2.33,6.06-6.19V94.49A3.22,3.22,0,0,0,297,91.16Z"/><path class="cls-1" d="M153.12,0c4,2.36,15.38,9.76,20.24,24.06,6,17.8-2.13,34-4.92,38.83-2.95,5.1-3.57,3.9-11.49,15.32-10.38,15-11.28,19.89-11.48,23-.19,2.82-.83,12.28,6,17.5,4.1,3.12,10.79,5.13,15.86,2.18,4.42-2.56,5.63-7.68,6-9.29,2.4-10.11-5.14-15.23-3.83-23.52.62-3.91,3.37-9.53,14.22-15.31a25.79,25.79,0,0,0-4.92,13.67c-.39,8.46,3.91,17.39,9.29,23,1.76,1.82,3.46,3.1,4.93,6a18.73,18.73,0,0,1,1.64,11.48c-1.31,6.31-6.3,9.84-10.94,13.13-7,5-14.13,7.14-21.33,9.29-8.79,2.63-11.57,2.35-15.31,5.47-4.43,3.69-6.26,8.84-7.11,12.58a90.83,90.83,0,0,1-25.16-30.08c-4.54-8.81-11.81-22.93-9.3-40.47,2-14,9.27-23.65,15.32-31.72,6.41-8.56,9.67-9.94,27.89-30.63,6.8-7.72,11.17-13,10.94-20.23C159.48,7.82,155.75,2.84,153.12,0Z"/></g></g></svg>