<svg xmlns="http://www.w3.org/2000/svg" viewBox="0 0 284.84 165.34"><defs><style>.cls-1{fill:#142850;}</style></defs><title>Recurso 4</title><g id="Capa_2" data-name="Capa 2"><g id="Capa_1-2" data-name="Capa 1"><path class="cls-1" d="M63.54,67.29A79.66,79.66,0,0,1,66,47.75L2.23,56.58A3.07,3.07,0,0,0,0,59.76v99.61c0,3.67,2.75,6.47,5.77,5.89L132.15,146A79.42,79.42,0,0,1,63.54,67.29Z"/><path class="cls-1" d="M282.61,56.58,220,47.91A79.45,79.45,0,0,1,153.19,146l125.87,19.22c3,.58,5.78-2.22,5.78-5.89V59.76A3.07,3.07,0,0,0,282.61,56.58Z"/><path class="cls-1" d="M145.17,0c3.1,1.82,11.86,7.53,15.61,18.56,4.66,13.73-1.65,26.23-3.8,30-2.27,3.93-2.75,3-8.86,11.81-8,11.56-8.7,15.35-8.86,17.72-.15,2.17-.64,9.48,4.64,13.5,3.16,2.41,8.32,4,12.24,1.69,3.4-2,4.34-5.93,4.64-7.18,1.85-7.79-4-11.75-3-18.14.48-3,2.6-7.35,11-11.81A20,20,0,0,0,165,66.66c-.29,6.52,3,13.42,7.18,17.72A17,17,0,0,1,176,89a14.36,14.36,0,0,1,1.27,8.86c-1,4.86-4.86,7.59-8.44,10.12-5.41,3.83-10.9,5.52-16.45,7.17-6.78,2-8.93,1.82-11.81,4.22A17.45,17.45,0,0,0,135,129.1a70.19,70.19,0,0,1-19.41-23.21c-3.5-6.79-9.11-17.69-7.17-31.22,1.54-10.76,7.15-18.24,11.82-24.47,4.94-6.6,7.46-7.66,21.51-23.62,5.25-6,8.62-10,8.44-15.61C150.07,6,147.2,2.19,145.17,0Z"/></g></g></svg>